<svg width="11" height="12" viewBox="0 0 11 12" fill="none" xmlns="http://www.w3.org/2000/svg">
<path d="M5.50018 11.25C5.1508 10.9164 4.75593 10.5693 4.3383 10.2H4.33288C2.86226 8.90505 1.19555 7.43971 0.459425 5.68388C0.21758 5.12489 0.0894148 4.5167 0.0835023 3.90005C0.0818871 3.05391 0.397009 2.24279 0.957655 1.64999C1.5183 1.0572 2.27714 0.732776 3.06268 0.750045C3.70218 0.751133 4.32792 0.950176 4.86534 1.32346C5.10149 1.48853 5.31515 1.68819 5.50018 1.91671C5.68623 1.68909 5.89995 1.48954 6.13555 1.32346C6.67274 0.950102 7.29833 0.751048 7.93768 0.750045C8.72321 0.732776 9.48205 1.0572 10.0427 1.64999C10.6033 2.24279 10.9185 3.05391 10.9168 3.90005C10.9113 4.51769 10.7831 5.12691 10.5409 5.6868C9.8048 7.44263 8.13863 8.90738 6.66801 10.2L6.66259 10.2047C6.24443 10.5716 5.85009 10.9187 5.50072 11.2547L5.50018 11.25ZM3.06268 1.91671C2.55812 1.90991 2.07146 2.11787 1.70851 2.49538C1.3588 2.86531 1.16335 3.37216 1.1668 3.90005C1.17298 4.3495 1.2675 4.79246 1.44418 5.19971C1.79166 5.95729 2.26053 6.64291 2.82922 7.22505C3.36601 7.80838 3.98351 8.37305 4.51759 8.84788C4.66547 8.97913 4.81605 9.11155 4.96663 9.24396L5.06143 9.32738C5.20605 9.45455 5.35555 9.58638 5.50018 9.71588L5.50722 9.70888L5.51047 9.70596H5.51372L5.51859 9.70188H5.5213H5.52401L5.53376 9.69313L5.55597 9.67388L5.55976 9.67038L5.56572 9.66571H5.56897L5.57384 9.66105L5.93351 9.34313L6.02776 9.25971C6.17997 9.12613 6.33055 8.99371 6.47843 8.86246C7.01251 8.38763 7.63055 7.82355 8.16734 7.2373C8.73611 6.65546 9.20499 5.97001 9.55238 5.21255C9.73226 4.80176 9.82813 4.35417 9.83353 3.90005C9.83576 3.37379 9.64042 2.86888 9.29184 2.50005C8.92958 2.12083 8.44285 1.91116 7.93768 1.91671C7.32122 1.91107 6.73189 2.18934 6.31809 2.68146L5.50018 3.69646L4.68226 2.68146C4.26846 2.18934 3.67913 1.91107 3.06268 1.91671Z" fill="#2E3A59"/>
</svg>