<svg width="9" height="10" viewBox="0 0 9 10" fill="none" xmlns="http://www.w3.org/2000/svg">
<path d="M7.52072 9.08333L4.93859 6.30316C3.77066 7.1329 2.20914 6.87623 1.32423 5.70907C0.439314 4.5419 0.518101 2.84291 1.50659 1.7765C2.49666 0.71156 4.07447 0.626345 5.15851 1.57926C6.24254 2.53218 6.48101 4.21401 5.71047 5.47191L8.29151 8.25325L7.52072 9.08333ZM3.43493 2.09149C2.65452 2.09096 1.98244 2.68418 1.82969 3.50836C1.67694 4.33254 2.08607 5.15815 2.80688 5.48029C3.52768 5.80242 4.35941 5.53136 4.79342 4.83288C5.22742 4.13439 5.14284 3.20302 4.59138 2.60833C4.28548 2.27661 3.86904 2.0905 3.43493 2.09149Z" fill="#2E3A59"/>
</svg>